<?xml version="1.0" encoding="UTF-8"?>
<svg xmlns="http://www.w3.org/2000/svg" xmlns:xlink="http://www.w3.org/1999/xlink" width="318pt" height="318pt" viewBox="0 0 318 318" version="1.1">
<path style="stroke:none;fill-rule:nonzero;fill:rgb(90.9803922%,47.058823529%,24.31372549%);fill-opacity:1;" d="M 317.621094 273.863281 C 317.621094 298.136719 297.761719 318 273.464844 318 L 44.140625 318 C 19.863281 318 0 298.136719 0 270.996094 L 0 41.667969 C 0 20.25 19.863281 0.402344 44.140625 0.402344 L 273.464844 0.402344 C 297.761719 0.402344 317.621094 20.25 317.621094 44.539062 L 317.621094 273.863281 z"/>
<path style="stroke:none;fill-rule:nonzero;fill:rgb(30.984497%,29.728699%,30.039978%);fill-opacity:1;" d="M 159.257812 217.296875 L 285.429688 217.296875 L 285.429688 249.835938 L 159.257812 249.835938 Z M 159.257812 217.296875 z"/>
<path style="stroke:none;fill-rule:nonzero;fill:rgb(100%,100%,100%);fill-opacity:1;" d="M 246.691406 143.84375 L 245.996094 144.996094 C 240.738281 153.644531 230.816406 159.210938 220.726562 159.210938 C 199.917969 159.210938 185.398438 144.683594 185.398438 123.882812 C 185.398438 103.933594 199.589844 89.46875 219.117188 89.46875 C 231.367188 89.46875 239.886719 94.269531 245.976562 104.578125 L 246.691406 105.726562 L 285.101562 105.726562 L 284.25 102.695312 C 276.808594 75.667969 249.019531 55.308594 219.597656 55.308594 C 190.246094 55.308594 165.125 73.460938 155.164062 99 C 147.183594 73 123.320312 55.308594 94.179688 55.308594 C 60.089844 55.308594 32.425781 83.71875 32.425781 117.824219 L 32.425781 124.789062 L 66.785156 124.789062 C 65.511719 105.941406 75.820312 88.886719 96.238281 88.886719 C 112.257812 88.886719 123.628906 100.753906 123.628906 116.78125 C 123.628906 133.84375 110.132812 145.207031 98.515625 156.039062 L 34.484375 218.113281 L 34.484375 249.835938 L 159.257812 249.835938 L 159.257812 217.296875 L 85.453125 217.296875 L 143.015625 159.433594 C 147.097656 154.078125 150.519531 148.445312 153.042969 142.527344 C 156.28125 154.570312 162.585938 165.398438 171.601562 173.960938 C 184.242188 186.128906 202.253906 193.382812 219.796875 193.382812 C 248.941406 193.382812 276.019531 173.875 284.230469 146.960938 L 285.179688 143.84375 L 246.691406 143.84375 z"/>
</svg>
